<svg xmlns="http://www.w3.org/2000/svg" width="50" height="50" viewBox="0 0 256 256">
    <path fill="#8CC84B" d="M128.324 255.942c-2.88 0-5.392-1.28-7.216-3.472l-84.51-101.433c-2.432-2.928-2.96-6.8-1.312-10.224l22.464-47.28c1.328-2.784 3.968-4.528 6.944-4.528h38.256c2.928 0 5.568 1.632 6.96 4.304l20.496 39.52c1.088 2.096 3.2 3.44 5.584 3.44c2.384 0 4.512-1.344 5.584-3.44l20.512-39.52c1.376-2.672 4.016-4.304 6.944-4.304h38.256c2.976 0 5.616 1.744 6.96 4.528l22.448 47.28c1.648 3.424 1.12 7.296-1.312 10.224l-84.526 101.433c-1.808 2.208-4.32 3.488-7.184 3.488zM240.48 136.25l-22.4-47.168c-.672-1.408-2.016-2.304-3.568-2.304h-38.256c-1.424 0-2.704.832-3.328 2.096L152.48 128.38l-18.4-35.536c-2.032-3.92-5.904-6.384-10.224-6.384c-4.32 0-8.208 2.464-10.224 6.384l-18.4 35.536L74.8 88.87c-.624-1.264-1.904-2.096-3.328-2.096H33.216c-1.552 0-2.896.896-3.568 2.304l-22.4 47.168c-1.2 2.512-.768 5.424.976 7.472l84.494 101.42c.928 1.12 2.208 1.76 3.616 1.76c1.408 0 2.688-.64 3.616-1.76l84.51-101.42c1.728-2.048 2.176-4.96.96-7.472z" />
</svg>
