<svg xmlns="http://www.w3.org/2000/svg" width="55" height="55" viewBox="0 0 24 24"><path fill="#FFD43B" d="M11.5 22.5c-4.8 0-5.7-2.7-5.7-2.7V14h3.4v5.5c0 1.2 1.4 1.1 1.4 1.1h5.8s1.2.1 1.2-1.1V14h3.4v5.8c0 2-2.9 2.7-2.9 2.7h-7z"/><path fill="#306998" d="M12.5 1.5c4.8 0 5.7 2.7 5.7 2.7V10h-3.4V4.5c0-1.2-1.4-1.1-1.4-1.1H7.7s-1.2-.1-1.2 1.1V10H3.1V4.2c0-2 2.9-2.7 2.9-2.7h6.5z"/><path fill="#FFD43B" d="M12 11h-1v2h1v1h-1v1h1v1h1v-1h1v-1h-1v-1h1v-1h-1v-1zm-4.4 2.1c-.6.3-1 .8-1 1.5c0 .7.4 1.2 1 1.5v-3z"/><path fill="#306998" d="M16.4 8.9c.6-.3 1-.8 1-1.5s-.4-1.2-1-1.5v3z"/></svg>